<mxfile modified="2019-10-20T11:49:09.494Z" host="www.draw.io" agent="Mozilla/5.0 (Windows NT 10.0; Win64; x64) AppleWebKit/537.36 (KHTML, like Gecko) Chrome/77.0.3865.120 Safari/537.36" etag="8p8_VLJHcmflfIEIefwy" version="12.1.3" type="github" pages="1">
  <diagram id="Y-kMSOKjW8Po2TOWRjTv" name="Page-1">
    <mxGraphModel dx="3128" dy="1748" grid="1" gridSize="10" guides="1" tooltips="1" connect="1" arrows="1" fold="1" page="1" pageScale="1" pageWidth="1654" pageHeight="2336" math="0" shadow="0">
      <root>
        <mxCell id="0"/>
        <mxCell id="1" parent="0"/>
        <mxCell id="Raz9EJKGNdeqzdveHmFa-4" style="edgeStyle=orthogonalEdgeStyle;rounded=0;orthogonalLoop=1;jettySize=auto;html=1;exitX=0.5;exitY=0;exitDx=0;exitDy=0;entryX=0.5;entryY=0;entryDx=0;entryDy=0;" parent="1" source="Raz9EJKGNdeqzdveHmFa-2" target="Raz9EJKGNdeqzdveHmFa-3" edge="1">
          <mxGeometry relative="1" as="geometry"/>
        </mxCell>
        <mxCell id="N_RV5JD7PrWw9uy53bvZ-60" style="edgeStyle=orthogonalEdgeStyle;rounded=0;orthogonalLoop=1;jettySize=auto;html=1;exitX=0;exitY=0.5;exitDx=0;exitDy=0;entryX=1;entryY=0.5;entryDx=0;entryDy=0;strokeColor=#000000;fontColor=#FF3399;" parent="1" source="Raz9EJKGNdeqzdveHmFa-2" target="Raz9EJKGNdeqzdveHmFa-3" edge="1">
          <mxGeometry relative="1" as="geometry">
            <Array as="points">
              <mxPoint x="662.5" y="140.5"/>
              <mxPoint x="916.5" y="140.5"/>
            </Array>
          </mxGeometry>
        </mxCell>
        <mxCell id="Raz9EJKGNdeqzdveHmFa-2" value="&lt;font style=&quot;font-size: 19px&quot;&gt;reflectance&lt;br&gt;encoder&lt;/font&gt;" style="shape=trapezoid;perimeter=trapezoidPerimeter;whiteSpace=wrap;html=1;rotation=0;direction=south;fillColor=#fff2cc;strokeColor=#d6b656;" parent="1" vertex="1">
          <mxGeometry x="612" y="145.5" width="100" height="155" as="geometry"/>
        </mxCell>
        <mxCell id="Raz9EJKGNdeqzdveHmFa-19" style="edgeStyle=orthogonalEdgeStyle;rounded=0;orthogonalLoop=1;jettySize=auto;html=1;exitX=0.5;exitY=1;exitDx=0;exitDy=0;entryX=0;entryY=0.5;entryDx=0;entryDy=0;" parent="1" source="Raz9EJKGNdeqzdveHmFa-3" target="Raz9EJKGNdeqzdveHmFa-17" edge="1">
          <mxGeometry relative="1" as="geometry"/>
        </mxCell>
        <mxCell id="N_RV5JD7PrWw9uy53bvZ-64" style="edgeStyle=orthogonalEdgeStyle;rounded=0;orthogonalLoop=1;jettySize=auto;html=1;exitX=0;exitY=0.75;exitDx=0;exitDy=0;entryX=1;entryY=0.75;entryDx=0;entryDy=0;strokeColor=#000000;fontColor=#FF3399;" parent="1" source="Raz9EJKGNdeqzdveHmFa-2" target="Raz9EJKGNdeqzdveHmFa-3" edge="1">
          <mxGeometry relative="1" as="geometry">
            <Array as="points">
              <mxPoint x="640.5" y="130.5"/>
              <mxPoint x="938.5" y="130.5"/>
            </Array>
          </mxGeometry>
        </mxCell>
        <mxCell id="Raz9EJKGNdeqzdveHmFa-3" value="&lt;font style=&quot;font-size: 17px&quot;&gt;reflectance&lt;br&gt;decoder&lt;/font&gt;" style="shape=trapezoid;perimeter=trapezoidPerimeter;whiteSpace=wrap;html=1;rotation=0;direction=north;fillColor=#fff2cc;strokeColor=#d6b656;" parent="1" vertex="1">
          <mxGeometry x="866" y="145.5" width="100" height="155" as="geometry"/>
        </mxCell>
        <mxCell id="Raz9EJKGNdeqzdveHmFa-7" style="edgeStyle=orthogonalEdgeStyle;rounded=0;orthogonalLoop=1;jettySize=auto;html=1;exitX=0.5;exitY=0;exitDx=0;exitDy=0;entryX=0.5;entryY=0;entryDx=0;entryDy=0;horizontal=1;" parent="1" source="Raz9EJKGNdeqzdveHmFa-5" target="Raz9EJKGNdeqzdveHmFa-6" edge="1">
          <mxGeometry relative="1" as="geometry"/>
        </mxCell>
        <mxCell id="N_RV5JD7PrWw9uy53bvZ-7" style="edgeStyle=orthogonalEdgeStyle;rounded=0;orthogonalLoop=1;jettySize=auto;html=1;entryX=0;entryY=0.5;entryDx=0;entryDy=0;strokeColor=#000000;fontColor=#FF3399;verticalAlign=middle;" parent="1" target="N_RV5JD7PrWw9uy53bvZ-4" edge="1">
          <mxGeometry relative="1" as="geometry">
            <mxPoint x="577.5" y="417.5" as="sourcePoint"/>
            <Array as="points">
              <mxPoint x="577.5" y="535.5"/>
            </Array>
          </mxGeometry>
        </mxCell>
        <mxCell id="N_RV5JD7PrWw9uy53bvZ-58" style="edgeStyle=orthogonalEdgeStyle;rounded=0;orthogonalLoop=1;jettySize=auto;html=1;exitX=0;exitY=0.5;exitDx=0;exitDy=0;entryX=1;entryY=0.5;entryDx=0;entryDy=0;strokeColor=#000000;fontColor=#FF3399;" parent="1" source="Raz9EJKGNdeqzdveHmFa-5" target="Raz9EJKGNdeqzdveHmFa-6" edge="1">
          <mxGeometry relative="1" as="geometry">
            <Array as="points">
              <mxPoint x="492.5" y="340.5"/>
              <mxPoint x="662.5" y="340.5"/>
            </Array>
          </mxGeometry>
        </mxCell>
        <mxCell id="Raz9EJKGNdeqzdveHmFa-5" value="&lt;font style=&quot;font-size: 17px&quot;&gt;shading&lt;br&gt;encoder&lt;/font&gt;" style="shape=trapezoid;perimeter=trapezoidPerimeter;whiteSpace=wrap;html=1;rotation=0;direction=south;fillColor=#f8cecc;strokeColor=#b85450;" parent="1" vertex="1">
          <mxGeometry x="442" y="339.5" width="100" height="155" as="geometry"/>
        </mxCell>
        <mxCell id="Raz9EJKGNdeqzdveHmFa-21" style="edgeStyle=orthogonalEdgeStyle;rounded=0;orthogonalLoop=1;jettySize=auto;html=1;exitX=0.5;exitY=1;exitDx=0;exitDy=0;entryX=0;entryY=0.5;entryDx=0;entryDy=0;" parent="1" source="Raz9EJKGNdeqzdveHmFa-6" target="Raz9EJKGNdeqzdveHmFa-20" edge="1">
          <mxGeometry relative="1" as="geometry"/>
        </mxCell>
        <mxCell id="Raz9EJKGNdeqzdveHmFa-6" value="&lt;font style=&quot;font-size: 17px&quot;&gt;pseudo&lt;br&gt;shading&lt;br&gt;decoder&lt;/font&gt;" style="shape=trapezoid;perimeter=trapezoidPerimeter;whiteSpace=wrap;html=1;rotation=0;direction=north;fillColor=#e1d5e7;strokeColor=#9673a6;" parent="1" vertex="1">
          <mxGeometry x="612" y="339.5" width="100" height="155" as="geometry"/>
        </mxCell>
        <mxCell id="N_RV5JD7PrWw9uy53bvZ-22" style="edgeStyle=orthogonalEdgeStyle;rounded=0;orthogonalLoop=1;jettySize=auto;html=1;exitX=0.5;exitY=0;exitDx=0;exitDy=0;entryX=0;entryY=0.5;entryDx=0;entryDy=0;strokeColor=#000000;fontColor=#FF3399;" parent="1" source="Raz9EJKGNdeqzdveHmFa-8" target="N_RV5JD7PrWw9uy53bvZ-15" edge="1">
          <mxGeometry relative="1" as="geometry"/>
        </mxCell>
        <mxCell id="N_RV5JD7PrWw9uy53bvZ-57" style="edgeStyle=orthogonalEdgeStyle;rounded=0;orthogonalLoop=1;jettySize=auto;html=1;exitX=0;exitY=0.5;exitDx=0;exitDy=0;entryX=1;entryY=0.5;entryDx=0;entryDy=0;strokeColor=#000000;fontColor=#FF3399;" parent="1" source="Raz9EJKGNdeqzdveHmFa-8" target="Raz9EJKGNdeqzdveHmFa-10" edge="1">
          <mxGeometry relative="1" as="geometry">
            <Array as="points">
              <mxPoint x="918.5" y="340.5"/>
              <mxPoint x="1088.5" y="340.5"/>
            </Array>
          </mxGeometry>
        </mxCell>
        <mxCell id="Raz9EJKGNdeqzdveHmFa-8" value="&lt;font style=&quot;font-size: 17px&quot;&gt;pseudo&lt;br&gt;shading&lt;br&gt;encoder&lt;/font&gt;" style="shape=trapezoid;perimeter=trapezoidPerimeter;whiteSpace=wrap;html=1;rotation=0;direction=south;fillColor=#e1d5e7;strokeColor=#9673a6;" parent="1" vertex="1">
          <mxGeometry x="868.5" y="339.5" width="100" height="155" as="geometry"/>
        </mxCell>
        <mxCell id="Raz9EJKGNdeqzdveHmFa-24" style="edgeStyle=orthogonalEdgeStyle;rounded=0;orthogonalLoop=1;jettySize=auto;html=1;exitX=0.5;exitY=1;exitDx=0;exitDy=0;entryX=0;entryY=0.5;entryDx=0;entryDy=0;" parent="1" source="Raz9EJKGNdeqzdveHmFa-10" target="Raz9EJKGNdeqzdveHmFa-23" edge="1">
          <mxGeometry relative="1" as="geometry"/>
        </mxCell>
        <mxCell id="N_RV5JD7PrWw9uy53bvZ-56" style="edgeStyle=orthogonalEdgeStyle;rounded=0;orthogonalLoop=1;jettySize=auto;html=1;exitX=0;exitY=0.75;exitDx=0;exitDy=0;entryX=1;entryY=0.75;entryDx=0;entryDy=0;strokeColor=#000000;fontColor=#FF3399;" parent="1" source="Raz9EJKGNdeqzdveHmFa-8" target="Raz9EJKGNdeqzdveHmFa-10" edge="1">
          <mxGeometry relative="1" as="geometry">
            <Array as="points">
              <mxPoint x="896.5" y="330.5"/>
              <mxPoint x="1110.5" y="330.5"/>
            </Array>
          </mxGeometry>
        </mxCell>
        <mxCell id="Raz9EJKGNdeqzdveHmFa-10" value="&lt;font style=&quot;font-size: 17px&quot;&gt;shading&lt;br&gt;decoder&lt;/font&gt;" style="shape=trapezoid;perimeter=trapezoidPerimeter;whiteSpace=wrap;html=1;rotation=0;direction=north;fillColor=#f8cecc;strokeColor=#b85450;" parent="1" vertex="1">
          <mxGeometry x="1038.5" y="339.5" width="100" height="155" as="geometry"/>
        </mxCell>
        <mxCell id="Raz9EJKGNdeqzdveHmFa-15" style="edgeStyle=orthogonalEdgeStyle;rounded=0;orthogonalLoop=1;jettySize=auto;html=1;exitX=0;exitY=0.5;exitDx=0;exitDy=0;entryX=0.5;entryY=1;entryDx=0;entryDy=0;" parent="1" source="Raz9EJKGNdeqzdveHmFa-12" target="Raz9EJKGNdeqzdveHmFa-5" edge="1">
          <mxGeometry relative="1" as="geometry"/>
        </mxCell>
        <mxCell id="Raz9EJKGNdeqzdveHmFa-16" style="edgeStyle=orthogonalEdgeStyle;rounded=0;orthogonalLoop=1;jettySize=auto;html=1;exitX=1;exitY=0.5;exitDx=0;exitDy=0;entryX=0.5;entryY=1;entryDx=0;entryDy=0;" parent="1" source="Raz9EJKGNdeqzdveHmFa-12" target="Raz9EJKGNdeqzdveHmFa-2" edge="1">
          <mxGeometry relative="1" as="geometry"/>
        </mxCell>
        <mxCell id="Raz9EJKGNdeqzdveHmFa-12" value="&lt;font style=&quot;font-size: 20px&quot;&gt;input&lt;/font&gt;" style="rounded=1;whiteSpace=wrap;html=1;fillColor=#d5e8d4;strokeColor=#82b366;" parent="1" vertex="1">
          <mxGeometry x="452" y="201.5" width="90" height="43" as="geometry"/>
        </mxCell>
        <mxCell id="N_RV5JD7PrWw9uy53bvZ-48" style="edgeStyle=orthogonalEdgeStyle;rounded=0;orthogonalLoop=1;jettySize=auto;html=1;exitX=1;exitY=0.5;exitDx=0;exitDy=0;strokeColor=#000000;fontColor=#FF3399;entryX=0;entryY=0.5;entryDx=0;entryDy=0;" parent="1" source="Raz9EJKGNdeqzdveHmFa-17" target="N_RV5JD7PrWw9uy53bvZ-43" edge="1">
          <mxGeometry relative="1" as="geometry">
            <mxPoint x="1118.5" y="223.02380952380952" as="targetPoint"/>
          </mxGeometry>
        </mxCell>
        <mxCell id="Raz9EJKGNdeqzdveHmFa-17" value="&lt;font style=&quot;font-size: 17px&quot;&gt;reflectance&lt;/font&gt;" style="rounded=1;whiteSpace=wrap;html=1;fillColor=#fff2cc;strokeColor=#d6b656;" parent="1" vertex="1">
          <mxGeometry x="1031.5" y="201" width="95" height="44" as="geometry"/>
        </mxCell>
        <mxCell id="N_RV5JD7PrWw9uy53bvZ-51" style="edgeStyle=orthogonalEdgeStyle;rounded=0;orthogonalLoop=1;jettySize=auto;html=1;exitX=1;exitY=0.5;exitDx=0;exitDy=0;entryX=0.5;entryY=1;entryDx=0;entryDy=0;strokeColor=#000000;fontColor=#FF3399;" parent="1" source="Raz9EJKGNdeqzdveHmFa-20" target="Raz9EJKGNdeqzdveHmFa-8" edge="1">
          <mxGeometry relative="1" as="geometry"/>
        </mxCell>
        <mxCell id="Raz9EJKGNdeqzdveHmFa-20" value="&lt;font style=&quot;font-size: 18px&quot;&gt;pseudo&lt;br&gt;shading&lt;/font&gt;" style="rounded=1;whiteSpace=wrap;html=1;fillColor=#e1d5e7;strokeColor=#9673a6;" parent="1" vertex="1">
          <mxGeometry x="743" y="395" width="95" height="44" as="geometry"/>
        </mxCell>
        <mxCell id="N_RV5JD7PrWw9uy53bvZ-45" style="edgeStyle=orthogonalEdgeStyle;rounded=0;orthogonalLoop=1;jettySize=auto;html=1;exitX=0.5;exitY=0;exitDx=0;exitDy=0;entryX=0.5;entryY=1;entryDx=0;entryDy=0;strokeColor=#000000;fontColor=#FF3399;" parent="1" source="Raz9EJKGNdeqzdveHmFa-23" target="N_RV5JD7PrWw9uy53bvZ-43" edge="1">
          <mxGeometry relative="1" as="geometry"/>
        </mxCell>
        <mxCell id="Raz9EJKGNdeqzdveHmFa-23" value="&lt;font style=&quot;font-size: 17px&quot;&gt;shading&lt;/font&gt;" style="rounded=1;whiteSpace=wrap;html=1;fillColor=#f8cecc;strokeColor=#b85450;" parent="1" vertex="1">
          <mxGeometry x="1178.5" y="395" width="95" height="44" as="geometry"/>
        </mxCell>
        <mxCell id="N_RV5JD7PrWw9uy53bvZ-11" style="edgeStyle=orthogonalEdgeStyle;rounded=0;orthogonalLoop=1;jettySize=auto;html=1;exitX=1;exitY=0.5;exitDx=0;exitDy=0;entryX=0;entryY=0.5;entryDx=0;entryDy=0;strokeColor=#000000;fontColor=#FF3399;" parent="1" source="N_RV5JD7PrWw9uy53bvZ-4" target="N_RV5JD7PrWw9uy53bvZ-10" edge="1">
          <mxGeometry relative="1" as="geometry"/>
        </mxCell>
        <mxCell id="N_RV5JD7PrWw9uy53bvZ-4" value="&lt;font style=&quot;font-size: 18px&quot;&gt;auxiliary&lt;br&gt;encoder&lt;/font&gt;" style="rounded=0;whiteSpace=wrap;html=1;fillColor=#dae8fc;strokeColor=#6c8ebf;" parent="1" vertex="1">
          <mxGeometry x="615" y="510.5" width="97" height="50" as="geometry"/>
        </mxCell>
        <mxCell id="N_RV5JD7PrWw9uy53bvZ-13" style="edgeStyle=orthogonalEdgeStyle;rounded=0;orthogonalLoop=1;jettySize=auto;html=1;exitX=1;exitY=0.5;exitDx=0;exitDy=0;entryX=0;entryY=0.5;entryDx=0;entryDy=0;strokeColor=#000000;fontColor=#FF3399;" parent="1" source="N_RV5JD7PrWw9uy53bvZ-10" target="N_RV5JD7PrWw9uy53bvZ-12" edge="1">
          <mxGeometry relative="1" as="geometry"/>
        </mxCell>
        <mxCell id="N_RV5JD7PrWw9uy53bvZ-10" value="&lt;span style=&quot;font-size: 18px&quot;&gt;auxiliary&lt;br&gt;information&lt;br&gt;&lt;/span&gt;" style="rounded=1;whiteSpace=wrap;html=1;fillColor=#dae8fc;strokeColor=#6c8ebf;arcSize=9;" parent="1" vertex="1">
          <mxGeometry x="740.5" y="513.5" width="100" height="44" as="geometry"/>
        </mxCell>
        <mxCell id="N_RV5JD7PrWw9uy53bvZ-20" style="edgeStyle=orthogonalEdgeStyle;rounded=0;orthogonalLoop=1;jettySize=auto;html=1;exitX=1;exitY=0.5;exitDx=0;exitDy=0;entryX=0.5;entryY=1;entryDx=0;entryDy=0;strokeColor=#000000;fontColor=#FF3399;" parent="1" source="N_RV5JD7PrWw9uy53bvZ-12" target="N_RV5JD7PrWw9uy53bvZ-15" edge="1">
          <mxGeometry relative="1" as="geometry"/>
        </mxCell>
        <mxCell id="N_RV5JD7PrWw9uy53bvZ-12" value="&lt;font style=&quot;font-size: 18px&quot;&gt;auxiliary&lt;br&gt;decoder&lt;/font&gt;" style="rounded=0;whiteSpace=wrap;html=1;fillColor=#dae8fc;strokeColor=#6c8ebf;" parent="1" vertex="1">
          <mxGeometry x="869" y="510.5" width="97" height="50" as="geometry"/>
        </mxCell>
        <mxCell id="N_RV5JD7PrWw9uy53bvZ-23" style="edgeStyle=orthogonalEdgeStyle;rounded=0;orthogonalLoop=1;jettySize=auto;html=1;exitX=1;exitY=0.5;exitDx=0;exitDy=0;entryX=0.5;entryY=0;entryDx=0;entryDy=0;strokeColor=#000000;fontColor=#FF3399;" parent="1" source="N_RV5JD7PrWw9uy53bvZ-15" target="Raz9EJKGNdeqzdveHmFa-10" edge="1">
          <mxGeometry relative="1" as="geometry"/>
        </mxCell>
        <mxCell id="N_RV5JD7PrWw9uy53bvZ-15" value="&lt;font color=&quot;#000000&quot; style=&quot;font-size: 12px&quot;&gt;concat&lt;/font&gt;" style="ellipse;whiteSpace=wrap;html=1;aspect=fixed;fillColor=#f9f7ed;strokeColor=#36393d;" parent="1" vertex="1">
          <mxGeometry x="984" y="397.5" width="39" height="39" as="geometry"/>
        </mxCell>
        <mxCell id="N_RV5JD7PrWw9uy53bvZ-43" value="&lt;span style=&quot;font-size: 15px&quot;&gt;reconstuction&lt;/span&gt;" style="rounded=1;whiteSpace=wrap;html=1;fillColor=#d5e8d4;strokeColor=#82b366;" parent="1" vertex="1">
          <mxGeometry x="1178.5" y="200.5" width="95" height="45" as="geometry"/>
        </mxCell>
        <mxCell id="N_RV5JD7PrWw9uy53bvZ-62" style="edgeStyle=orthogonalEdgeStyle;rounded=0;orthogonalLoop=1;jettySize=auto;html=1;exitX=0;exitY=0.75;exitDx=0;exitDy=0;entryX=1;entryY=0.75;entryDx=0;entryDy=0;strokeColor=#000000;fontColor=#FF3399;" parent="1" edge="1">
          <mxGeometry relative="1" as="geometry">
            <mxPoint x="471" y="348.5" as="sourcePoint"/>
            <mxPoint x="685" y="348.5" as="targetPoint"/>
            <Array as="points">
              <mxPoint x="471" y="330.5"/>
              <mxPoint x="685" y="330.5"/>
            </Array>
          </mxGeometry>
        </mxCell>
        <mxCell id="PwQ5iRUulvVSv9gIs1EZ-1" style="edgeStyle=orthogonalEdgeStyle;rounded=0;orthogonalLoop=1;jettySize=auto;html=1;exitX=0.5;exitY=0;exitDx=0;exitDy=0;entryX=0.5;entryY=0;entryDx=0;entryDy=0;" edge="1" parent="1" source="PwQ5iRUulvVSv9gIs1EZ-3" target="PwQ5iRUulvVSv9gIs1EZ-6">
          <mxGeometry relative="1" as="geometry"/>
        </mxCell>
        <mxCell id="PwQ5iRUulvVSv9gIs1EZ-2" style="edgeStyle=orthogonalEdgeStyle;rounded=0;orthogonalLoop=1;jettySize=auto;html=1;exitX=0;exitY=0.5;exitDx=0;exitDy=0;entryX=1;entryY=0.5;entryDx=0;entryDy=0;strokeColor=#000000;fontColor=#FF3399;" edge="1" parent="1" source="PwQ5iRUulvVSv9gIs1EZ-3" target="PwQ5iRUulvVSv9gIs1EZ-6">
          <mxGeometry relative="1" as="geometry">
            <Array as="points">
              <mxPoint x="643" y="744"/>
              <mxPoint x="897" y="744"/>
            </Array>
          </mxGeometry>
        </mxCell>
        <mxCell id="PwQ5iRUulvVSv9gIs1EZ-3" value="&lt;font style=&quot;font-size: 19px&quot;&gt;reflectance&lt;br&gt;encoder&lt;/font&gt;" style="shape=trapezoid;perimeter=trapezoidPerimeter;whiteSpace=wrap;html=1;rotation=0;direction=south;fillColor=#fff2cc;strokeColor=#d6b656;" vertex="1" parent="1">
          <mxGeometry x="592.5" y="749" width="100" height="155" as="geometry"/>
        </mxCell>
        <mxCell id="PwQ5iRUulvVSv9gIs1EZ-4" style="edgeStyle=orthogonalEdgeStyle;rounded=0;orthogonalLoop=1;jettySize=auto;html=1;exitX=0.5;exitY=1;exitDx=0;exitDy=0;entryX=0;entryY=0.5;entryDx=0;entryDy=0;" edge="1" parent="1" source="PwQ5iRUulvVSv9gIs1EZ-6" target="PwQ5iRUulvVSv9gIs1EZ-23">
          <mxGeometry relative="1" as="geometry"/>
        </mxCell>
        <mxCell id="PwQ5iRUulvVSv9gIs1EZ-5" style="edgeStyle=orthogonalEdgeStyle;rounded=0;orthogonalLoop=1;jettySize=auto;html=1;exitX=0;exitY=0.75;exitDx=0;exitDy=0;entryX=1;entryY=0.75;entryDx=0;entryDy=0;strokeColor=#000000;fontColor=#FF3399;" edge="1" parent="1" source="PwQ5iRUulvVSv9gIs1EZ-3" target="PwQ5iRUulvVSv9gIs1EZ-6">
          <mxGeometry relative="1" as="geometry">
            <Array as="points">
              <mxPoint x="621" y="734"/>
              <mxPoint x="919" y="734"/>
            </Array>
          </mxGeometry>
        </mxCell>
        <mxCell id="PwQ5iRUulvVSv9gIs1EZ-6" value="&lt;font style=&quot;font-size: 17px&quot;&gt;reflectance&lt;br&gt;decoder&lt;/font&gt;" style="shape=trapezoid;perimeter=trapezoidPerimeter;whiteSpace=wrap;html=1;rotation=0;direction=north;fillColor=#fff2cc;strokeColor=#d6b656;" vertex="1" parent="1">
          <mxGeometry x="846.5" y="749" width="100" height="155" as="geometry"/>
        </mxCell>
        <mxCell id="PwQ5iRUulvVSv9gIs1EZ-40" style="edgeStyle=orthogonalEdgeStyle;rounded=0;orthogonalLoop=1;jettySize=auto;html=1;exitX=0.5;exitY=0;exitDx=0;exitDy=0;entryX=0;entryY=0.5;entryDx=0;entryDy=0;" edge="1" parent="1" source="PwQ5iRUulvVSv9gIs1EZ-10" target="PwQ5iRUulvVSv9gIs1EZ-35">
          <mxGeometry relative="1" as="geometry"/>
        </mxCell>
        <mxCell id="PwQ5iRUulvVSv9gIs1EZ-44" style="edgeStyle=orthogonalEdgeStyle;rounded=0;orthogonalLoop=1;jettySize=auto;html=1;exitX=1;exitY=0.5;exitDx=0;exitDy=0;entryX=0.5;entryY=0;entryDx=0;entryDy=0;" edge="1" parent="1" source="PwQ5iRUulvVSv9gIs1EZ-10" target="PwQ5iRUulvVSv9gIs1EZ-29">
          <mxGeometry relative="1" as="geometry"/>
        </mxCell>
        <mxCell id="PwQ5iRUulvVSv9gIs1EZ-10" value="&lt;font style=&quot;font-size: 17px&quot;&gt;shading&lt;br&gt;encoder&lt;/font&gt;" style="shape=trapezoid;perimeter=trapezoidPerimeter;whiteSpace=wrap;html=1;rotation=0;direction=south;fillColor=#f8cecc;strokeColor=#b85450;" vertex="1" parent="1">
          <mxGeometry x="592.5" y="943" width="100" height="155" as="geometry"/>
        </mxCell>
        <mxCell id="PwQ5iRUulvVSv9gIs1EZ-16" style="edgeStyle=orthogonalEdgeStyle;rounded=0;orthogonalLoop=1;jettySize=auto;html=1;exitX=0.5;exitY=1;exitDx=0;exitDy=0;entryX=0;entryY=0.5;entryDx=0;entryDy=0;" edge="1" parent="1" source="PwQ5iRUulvVSv9gIs1EZ-18" target="PwQ5iRUulvVSv9gIs1EZ-27">
          <mxGeometry relative="1" as="geometry"/>
        </mxCell>
        <mxCell id="PwQ5iRUulvVSv9gIs1EZ-18" value="&lt;font style=&quot;font-size: 17px&quot;&gt;shading&lt;br&gt;decoder&lt;/font&gt;" style="shape=trapezoid;perimeter=trapezoidPerimeter;whiteSpace=wrap;html=1;rotation=0;direction=north;fillColor=#f8cecc;strokeColor=#b85450;" vertex="1" parent="1">
          <mxGeometry x="846.5" y="943" width="100" height="155" as="geometry"/>
        </mxCell>
        <mxCell id="PwQ5iRUulvVSv9gIs1EZ-20" style="edgeStyle=orthogonalEdgeStyle;rounded=0;orthogonalLoop=1;jettySize=auto;html=1;exitX=1;exitY=0.5;exitDx=0;exitDy=0;entryX=0.5;entryY=1;entryDx=0;entryDy=0;" edge="1" parent="1" source="PwQ5iRUulvVSv9gIs1EZ-21" target="PwQ5iRUulvVSv9gIs1EZ-3">
          <mxGeometry relative="1" as="geometry"/>
        </mxCell>
        <mxCell id="PwQ5iRUulvVSv9gIs1EZ-39" style="edgeStyle=orthogonalEdgeStyle;rounded=0;orthogonalLoop=1;jettySize=auto;html=1;exitX=1;exitY=0.5;exitDx=0;exitDy=0;entryX=0.5;entryY=1;entryDx=0;entryDy=0;" edge="1" parent="1" source="PwQ5iRUulvVSv9gIs1EZ-21" target="PwQ5iRUulvVSv9gIs1EZ-10">
          <mxGeometry relative="1" as="geometry"/>
        </mxCell>
        <mxCell id="PwQ5iRUulvVSv9gIs1EZ-21" value="&lt;font style=&quot;font-size: 20px&quot;&gt;input&lt;/font&gt;" style="rounded=1;whiteSpace=wrap;html=1;fillColor=#d5e8d4;strokeColor=#82b366;" vertex="1" parent="1">
          <mxGeometry x="419" y="904" width="90" height="43" as="geometry"/>
        </mxCell>
        <mxCell id="PwQ5iRUulvVSv9gIs1EZ-22" style="edgeStyle=orthogonalEdgeStyle;rounded=0;orthogonalLoop=1;jettySize=auto;html=1;exitX=1;exitY=0.5;exitDx=0;exitDy=0;strokeColor=#000000;fontColor=#FF3399;entryX=0;entryY=0.5;entryDx=0;entryDy=0;" edge="1" parent="1" source="PwQ5iRUulvVSv9gIs1EZ-23" target="PwQ5iRUulvVSv9gIs1EZ-36">
          <mxGeometry relative="1" as="geometry">
            <mxPoint x="1099" y="826.5238095238095" as="targetPoint"/>
            <Array as="points">
              <mxPoint x="1138.5" y="826.5"/>
              <mxPoint x="1138.5" y="926.5"/>
            </Array>
          </mxGeometry>
        </mxCell>
        <mxCell id="PwQ5iRUulvVSv9gIs1EZ-23" value="&lt;font style=&quot;font-size: 17px&quot;&gt;reflectance&lt;/font&gt;" style="rounded=1;whiteSpace=wrap;html=1;fillColor=#fff2cc;strokeColor=#d6b656;" vertex="1" parent="1">
          <mxGeometry x="1012" y="804.5" width="95" height="44" as="geometry"/>
        </mxCell>
        <mxCell id="PwQ5iRUulvVSv9gIs1EZ-127" style="edgeStyle=orthogonalEdgeStyle;rounded=0;orthogonalLoop=1;jettySize=auto;html=1;exitX=0.5;exitY=0;exitDx=0;exitDy=0;entryX=0;entryY=0.5;entryDx=0;entryDy=0;" edge="1" parent="1" source="PwQ5iRUulvVSv9gIs1EZ-27" target="PwQ5iRUulvVSv9gIs1EZ-36">
          <mxGeometry relative="1" as="geometry">
            <Array as="points">
              <mxPoint x="1138.5" y="998.5"/>
              <mxPoint x="1138.5" y="926.5"/>
            </Array>
          </mxGeometry>
        </mxCell>
        <mxCell id="PwQ5iRUulvVSv9gIs1EZ-27" value="&lt;font style=&quot;font-size: 17px&quot;&gt;shading&lt;/font&gt;" style="rounded=1;whiteSpace=wrap;html=1;fillColor=#f8cecc;strokeColor=#b85450;" vertex="1" parent="1">
          <mxGeometry x="1012" y="998.5" width="95" height="44" as="geometry"/>
        </mxCell>
        <mxCell id="PwQ5iRUulvVSv9gIs1EZ-28" style="edgeStyle=orthogonalEdgeStyle;rounded=0;orthogonalLoop=1;jettySize=auto;html=1;exitX=1;exitY=0.5;exitDx=0;exitDy=0;entryX=0;entryY=0.5;entryDx=0;entryDy=0;strokeColor=#000000;fontColor=#FF3399;" edge="1" parent="1" source="PwQ5iRUulvVSv9gIs1EZ-29" target="PwQ5iRUulvVSv9gIs1EZ-31">
          <mxGeometry relative="1" as="geometry"/>
        </mxCell>
        <mxCell id="PwQ5iRUulvVSv9gIs1EZ-29" value="&lt;font style=&quot;font-size: 18px&quot;&gt;auxiliary&lt;br&gt;encoder&lt;/font&gt;" style="rounded=0;whiteSpace=wrap;html=1;fillColor=#dae8fc;strokeColor=#6c8ebf;" vertex="1" parent="1">
          <mxGeometry x="594" y="1134" width="97" height="50" as="geometry"/>
        </mxCell>
        <mxCell id="PwQ5iRUulvVSv9gIs1EZ-30" style="edgeStyle=orthogonalEdgeStyle;rounded=0;orthogonalLoop=1;jettySize=auto;html=1;exitX=1;exitY=0.5;exitDx=0;exitDy=0;entryX=0;entryY=0.5;entryDx=0;entryDy=0;strokeColor=#000000;fontColor=#FF3399;" edge="1" parent="1" source="PwQ5iRUulvVSv9gIs1EZ-31" target="PwQ5iRUulvVSv9gIs1EZ-33">
          <mxGeometry relative="1" as="geometry"/>
        </mxCell>
        <mxCell id="PwQ5iRUulvVSv9gIs1EZ-31" value="&lt;span style=&quot;font-size: 18px&quot;&gt;auxiliary&lt;br&gt;information&lt;br&gt;&lt;/span&gt;" style="rounded=1;whiteSpace=wrap;html=1;fillColor=#dae8fc;strokeColor=#6c8ebf;arcSize=9;" vertex="1" parent="1">
          <mxGeometry x="719.5" y="1137" width="100" height="44" as="geometry"/>
        </mxCell>
        <mxCell id="PwQ5iRUulvVSv9gIs1EZ-43" style="edgeStyle=orthogonalEdgeStyle;rounded=0;orthogonalLoop=1;jettySize=auto;html=1;exitX=0.5;exitY=0;exitDx=0;exitDy=0;entryX=0.5;entryY=1;entryDx=0;entryDy=0;" edge="1" parent="1" source="PwQ5iRUulvVSv9gIs1EZ-33" target="PwQ5iRUulvVSv9gIs1EZ-35">
          <mxGeometry relative="1" as="geometry">
            <Array as="points">
              <mxPoint x="897" y="1094"/>
              <mxPoint x="770" y="1094"/>
            </Array>
          </mxGeometry>
        </mxCell>
        <mxCell id="PwQ5iRUulvVSv9gIs1EZ-33" value="&lt;font style=&quot;font-size: 18px&quot;&gt;auxiliary&lt;br&gt;decoder&lt;/font&gt;" style="rounded=0;whiteSpace=wrap;html=1;fillColor=#dae8fc;strokeColor=#6c8ebf;" vertex="1" parent="1">
          <mxGeometry x="848" y="1134" width="97" height="50" as="geometry"/>
        </mxCell>
        <mxCell id="PwQ5iRUulvVSv9gIs1EZ-41" style="edgeStyle=orthogonalEdgeStyle;rounded=0;orthogonalLoop=1;jettySize=auto;html=1;exitX=1;exitY=0.5;exitDx=0;exitDy=0;entryX=0.5;entryY=0;entryDx=0;entryDy=0;" edge="1" parent="1" source="PwQ5iRUulvVSv9gIs1EZ-35" target="PwQ5iRUulvVSv9gIs1EZ-18">
          <mxGeometry relative="1" as="geometry"/>
        </mxCell>
        <mxCell id="PwQ5iRUulvVSv9gIs1EZ-35" value="&lt;font color=&quot;#000000&quot; style=&quot;font-size: 12px&quot;&gt;concat&lt;/font&gt;" style="ellipse;whiteSpace=wrap;html=1;aspect=fixed;fillColor=#f9f7ed;strokeColor=#36393d;" vertex="1" parent="1">
          <mxGeometry x="750" y="1001" width="39" height="39" as="geometry"/>
        </mxCell>
        <mxCell id="PwQ5iRUulvVSv9gIs1EZ-36" value="&lt;span style=&quot;font-size: 15px&quot;&gt;reconstuction&lt;/span&gt;" style="rounded=1;whiteSpace=wrap;html=1;fillColor=#d5e8d4;strokeColor=#82b366;" vertex="1" parent="1">
          <mxGeometry x="1158.5" y="904" width="95" height="45" as="geometry"/>
        </mxCell>
        <mxCell id="PwQ5iRUulvVSv9gIs1EZ-45" style="edgeStyle=orthogonalEdgeStyle;rounded=0;orthogonalLoop=1;jettySize=auto;html=1;exitX=0.5;exitY=0;exitDx=0;exitDy=0;entryX=0.5;entryY=0;entryDx=0;entryDy=0;" edge="1" parent="1" source="PwQ5iRUulvVSv9gIs1EZ-47" target="PwQ5iRUulvVSv9gIs1EZ-50">
          <mxGeometry relative="1" as="geometry"/>
        </mxCell>
        <mxCell id="PwQ5iRUulvVSv9gIs1EZ-46" style="edgeStyle=orthogonalEdgeStyle;rounded=0;orthogonalLoop=1;jettySize=auto;html=1;exitX=0;exitY=0.5;exitDx=0;exitDy=0;entryX=1;entryY=0.5;entryDx=0;entryDy=0;strokeColor=#000000;fontColor=#FF3399;" edge="1" parent="1" source="PwQ5iRUulvVSv9gIs1EZ-47" target="PwQ5iRUulvVSv9gIs1EZ-50">
          <mxGeometry relative="1" as="geometry">
            <Array as="points">
              <mxPoint x="662.5" y="1362.5"/>
              <mxPoint x="916.5" y="1362.5"/>
            </Array>
          </mxGeometry>
        </mxCell>
        <mxCell id="PwQ5iRUulvVSv9gIs1EZ-47" value="&lt;font style=&quot;font-size: 19px&quot;&gt;reflectance&lt;br&gt;encoder&lt;/font&gt;" style="shape=trapezoid;perimeter=trapezoidPerimeter;whiteSpace=wrap;html=1;rotation=0;direction=south;fillColor=#fff2cc;strokeColor=#d6b656;" vertex="1" parent="1">
          <mxGeometry x="612" y="1367.5" width="100" height="155" as="geometry"/>
        </mxCell>
        <mxCell id="PwQ5iRUulvVSv9gIs1EZ-48" style="edgeStyle=orthogonalEdgeStyle;rounded=0;orthogonalLoop=1;jettySize=auto;html=1;exitX=0.5;exitY=1;exitDx=0;exitDy=0;entryX=0;entryY=0.5;entryDx=0;entryDy=0;" edge="1" parent="1" source="PwQ5iRUulvVSv9gIs1EZ-50" target="PwQ5iRUulvVSv9gIs1EZ-67">
          <mxGeometry relative="1" as="geometry"/>
        </mxCell>
        <mxCell id="PwQ5iRUulvVSv9gIs1EZ-49" style="edgeStyle=orthogonalEdgeStyle;rounded=0;orthogonalLoop=1;jettySize=auto;html=1;exitX=0;exitY=0.75;exitDx=0;exitDy=0;entryX=1;entryY=0.75;entryDx=0;entryDy=0;strokeColor=#000000;fontColor=#FF3399;" edge="1" parent="1" source="PwQ5iRUulvVSv9gIs1EZ-47" target="PwQ5iRUulvVSv9gIs1EZ-50">
          <mxGeometry relative="1" as="geometry">
            <Array as="points">
              <mxPoint x="640.5" y="1352.5"/>
              <mxPoint x="938.5" y="1352.5"/>
            </Array>
          </mxGeometry>
        </mxCell>
        <mxCell id="PwQ5iRUulvVSv9gIs1EZ-50" value="&lt;font style=&quot;font-size: 17px&quot;&gt;reflectance&lt;br&gt;decoder&lt;/font&gt;" style="shape=trapezoid;perimeter=trapezoidPerimeter;whiteSpace=wrap;html=1;rotation=0;direction=north;fillColor=#fff2cc;strokeColor=#d6b656;" vertex="1" parent="1">
          <mxGeometry x="866" y="1367.5" width="100" height="155" as="geometry"/>
        </mxCell>
        <mxCell id="PwQ5iRUulvVSv9gIs1EZ-51" style="edgeStyle=orthogonalEdgeStyle;rounded=0;orthogonalLoop=1;jettySize=auto;html=1;exitX=0.5;exitY=0;exitDx=0;exitDy=0;entryX=0.5;entryY=0;entryDx=0;entryDy=0;horizontal=1;" edge="1" parent="1" source="PwQ5iRUulvVSv9gIs1EZ-54" target="PwQ5iRUulvVSv9gIs1EZ-56">
          <mxGeometry relative="1" as="geometry"/>
        </mxCell>
        <mxCell id="PwQ5iRUulvVSv9gIs1EZ-53" style="edgeStyle=orthogonalEdgeStyle;rounded=0;orthogonalLoop=1;jettySize=auto;html=1;exitX=0;exitY=0.5;exitDx=0;exitDy=0;entryX=1;entryY=0.5;entryDx=0;entryDy=0;strokeColor=#000000;fontColor=#FF3399;" edge="1" parent="1" source="PwQ5iRUulvVSv9gIs1EZ-54" target="PwQ5iRUulvVSv9gIs1EZ-56">
          <mxGeometry relative="1" as="geometry">
            <Array as="points">
              <mxPoint x="492.5" y="1562.5"/>
              <mxPoint x="662.5" y="1562.5"/>
            </Array>
          </mxGeometry>
        </mxCell>
        <mxCell id="PwQ5iRUulvVSv9gIs1EZ-54" value="&lt;font style=&quot;font-size: 17px&quot;&gt;shading&lt;br&gt;encoder&lt;/font&gt;" style="shape=trapezoid;perimeter=trapezoidPerimeter;whiteSpace=wrap;html=1;rotation=0;direction=south;fillColor=#f8cecc;strokeColor=#b85450;" vertex="1" parent="1">
          <mxGeometry x="442" y="1561.5" width="100" height="155" as="geometry"/>
        </mxCell>
        <mxCell id="PwQ5iRUulvVSv9gIs1EZ-55" style="edgeStyle=orthogonalEdgeStyle;rounded=0;orthogonalLoop=1;jettySize=auto;html=1;exitX=0.5;exitY=1;exitDx=0;exitDy=0;entryX=0;entryY=0.5;entryDx=0;entryDy=0;" edge="1" parent="1" source="PwQ5iRUulvVSv9gIs1EZ-56" target="PwQ5iRUulvVSv9gIs1EZ-69">
          <mxGeometry relative="1" as="geometry"/>
        </mxCell>
        <mxCell id="PwQ5iRUulvVSv9gIs1EZ-56" value="&lt;font style=&quot;font-size: 17px&quot;&gt;pseudo&lt;br&gt;shading&lt;br&gt;decoder&lt;/font&gt;" style="shape=trapezoid;perimeter=trapezoidPerimeter;whiteSpace=wrap;html=1;rotation=0;direction=north;fillColor=#e1d5e7;strokeColor=#9673a6;" vertex="1" parent="1">
          <mxGeometry x="612" y="1561.5" width="100" height="155" as="geometry"/>
        </mxCell>
        <mxCell id="PwQ5iRUulvVSv9gIs1EZ-58" style="edgeStyle=orthogonalEdgeStyle;rounded=0;orthogonalLoop=1;jettySize=auto;html=1;exitX=0;exitY=0.5;exitDx=0;exitDy=0;entryX=1;entryY=0.5;entryDx=0;entryDy=0;strokeColor=#000000;fontColor=#FF3399;" edge="1" parent="1" source="PwQ5iRUulvVSv9gIs1EZ-59" target="PwQ5iRUulvVSv9gIs1EZ-62">
          <mxGeometry relative="1" as="geometry">
            <Array as="points">
              <mxPoint x="918.5" y="1562.5"/>
              <mxPoint x="1088.5" y="1562.5"/>
            </Array>
          </mxGeometry>
        </mxCell>
        <mxCell id="PwQ5iRUulvVSv9gIs1EZ-82" style="edgeStyle=orthogonalEdgeStyle;rounded=0;orthogonalLoop=1;jettySize=auto;html=1;exitX=0.5;exitY=0;exitDx=0;exitDy=0;entryX=0.5;entryY=0;entryDx=0;entryDy=0;" edge="1" parent="1" source="PwQ5iRUulvVSv9gIs1EZ-59" target="PwQ5iRUulvVSv9gIs1EZ-62">
          <mxGeometry relative="1" as="geometry"/>
        </mxCell>
        <mxCell id="PwQ5iRUulvVSv9gIs1EZ-59" value="&lt;font style=&quot;font-size: 17px&quot;&gt;pseudo&lt;br&gt;shading&lt;br&gt;encoder&lt;/font&gt;" style="shape=trapezoid;perimeter=trapezoidPerimeter;whiteSpace=wrap;html=1;rotation=0;direction=south;fillColor=#e1d5e7;strokeColor=#9673a6;" vertex="1" parent="1">
          <mxGeometry x="868.5" y="1561.5" width="100" height="155" as="geometry"/>
        </mxCell>
        <mxCell id="PwQ5iRUulvVSv9gIs1EZ-60" style="edgeStyle=orthogonalEdgeStyle;rounded=0;orthogonalLoop=1;jettySize=auto;html=1;exitX=0.5;exitY=1;exitDx=0;exitDy=0;entryX=0;entryY=0.5;entryDx=0;entryDy=0;" edge="1" parent="1" source="PwQ5iRUulvVSv9gIs1EZ-62" target="PwQ5iRUulvVSv9gIs1EZ-71">
          <mxGeometry relative="1" as="geometry"/>
        </mxCell>
        <mxCell id="PwQ5iRUulvVSv9gIs1EZ-61" style="edgeStyle=orthogonalEdgeStyle;rounded=0;orthogonalLoop=1;jettySize=auto;html=1;exitX=0;exitY=0.75;exitDx=0;exitDy=0;entryX=1;entryY=0.75;entryDx=0;entryDy=0;strokeColor=#000000;fontColor=#FF3399;" edge="1" parent="1" source="PwQ5iRUulvVSv9gIs1EZ-59" target="PwQ5iRUulvVSv9gIs1EZ-62">
          <mxGeometry relative="1" as="geometry">
            <Array as="points">
              <mxPoint x="896.5" y="1552.5"/>
              <mxPoint x="1110.5" y="1552.5"/>
            </Array>
          </mxGeometry>
        </mxCell>
        <mxCell id="PwQ5iRUulvVSv9gIs1EZ-62" value="&lt;font style=&quot;font-size: 17px&quot;&gt;shading&lt;br&gt;decoder&lt;/font&gt;" style="shape=trapezoid;perimeter=trapezoidPerimeter;whiteSpace=wrap;html=1;rotation=0;direction=north;fillColor=#f8cecc;strokeColor=#b85450;" vertex="1" parent="1">
          <mxGeometry x="1038.5" y="1561.5" width="100" height="155" as="geometry"/>
        </mxCell>
        <mxCell id="PwQ5iRUulvVSv9gIs1EZ-63" style="edgeStyle=orthogonalEdgeStyle;rounded=0;orthogonalLoop=1;jettySize=auto;html=1;exitX=0;exitY=0.5;exitDx=0;exitDy=0;entryX=0.5;entryY=1;entryDx=0;entryDy=0;" edge="1" parent="1" source="PwQ5iRUulvVSv9gIs1EZ-65" target="PwQ5iRUulvVSv9gIs1EZ-54">
          <mxGeometry relative="1" as="geometry"/>
        </mxCell>
        <mxCell id="PwQ5iRUulvVSv9gIs1EZ-64" style="edgeStyle=orthogonalEdgeStyle;rounded=0;orthogonalLoop=1;jettySize=auto;html=1;exitX=1;exitY=0.5;exitDx=0;exitDy=0;entryX=0.5;entryY=1;entryDx=0;entryDy=0;" edge="1" parent="1" source="PwQ5iRUulvVSv9gIs1EZ-65" target="PwQ5iRUulvVSv9gIs1EZ-47">
          <mxGeometry relative="1" as="geometry"/>
        </mxCell>
        <mxCell id="PwQ5iRUulvVSv9gIs1EZ-65" value="&lt;font style=&quot;font-size: 20px&quot;&gt;input&lt;/font&gt;" style="rounded=1;whiteSpace=wrap;html=1;fillColor=#d5e8d4;strokeColor=#82b366;" vertex="1" parent="1">
          <mxGeometry x="452" y="1423.5" width="90" height="43" as="geometry"/>
        </mxCell>
        <mxCell id="PwQ5iRUulvVSv9gIs1EZ-66" style="edgeStyle=orthogonalEdgeStyle;rounded=0;orthogonalLoop=1;jettySize=auto;html=1;exitX=1;exitY=0.5;exitDx=0;exitDy=0;strokeColor=#000000;fontColor=#FF3399;entryX=0;entryY=0.5;entryDx=0;entryDy=0;" edge="1" parent="1" source="PwQ5iRUulvVSv9gIs1EZ-67" target="PwQ5iRUulvVSv9gIs1EZ-80">
          <mxGeometry relative="1" as="geometry">
            <mxPoint x="1118.5" y="1445.0238095238096" as="targetPoint"/>
          </mxGeometry>
        </mxCell>
        <mxCell id="PwQ5iRUulvVSv9gIs1EZ-67" value="&lt;font style=&quot;font-size: 17px&quot;&gt;reflectance&lt;/font&gt;" style="rounded=1;whiteSpace=wrap;html=1;fillColor=#fff2cc;strokeColor=#d6b656;" vertex="1" parent="1">
          <mxGeometry x="1031.5" y="1423" width="95" height="44" as="geometry"/>
        </mxCell>
        <mxCell id="PwQ5iRUulvVSv9gIs1EZ-68" style="edgeStyle=orthogonalEdgeStyle;rounded=0;orthogonalLoop=1;jettySize=auto;html=1;exitX=1;exitY=0.5;exitDx=0;exitDy=0;entryX=0.5;entryY=1;entryDx=0;entryDy=0;strokeColor=#000000;fontColor=#FF3399;" edge="1" parent="1" source="PwQ5iRUulvVSv9gIs1EZ-69" target="PwQ5iRUulvVSv9gIs1EZ-59">
          <mxGeometry relative="1" as="geometry"/>
        </mxCell>
        <mxCell id="PwQ5iRUulvVSv9gIs1EZ-69" value="&lt;font style=&quot;font-size: 18px&quot;&gt;pseudo&lt;br&gt;shading&lt;/font&gt;" style="rounded=1;whiteSpace=wrap;html=1;fillColor=#e1d5e7;strokeColor=#9673a6;" vertex="1" parent="1">
          <mxGeometry x="743" y="1617" width="95" height="44" as="geometry"/>
        </mxCell>
        <mxCell id="PwQ5iRUulvVSv9gIs1EZ-70" style="edgeStyle=orthogonalEdgeStyle;rounded=0;orthogonalLoop=1;jettySize=auto;html=1;exitX=0.5;exitY=0;exitDx=0;exitDy=0;entryX=0.5;entryY=1;entryDx=0;entryDy=0;strokeColor=#000000;fontColor=#FF3399;" edge="1" parent="1" source="PwQ5iRUulvVSv9gIs1EZ-71" target="PwQ5iRUulvVSv9gIs1EZ-80">
          <mxGeometry relative="1" as="geometry"/>
        </mxCell>
        <mxCell id="PwQ5iRUulvVSv9gIs1EZ-71" value="&lt;font style=&quot;font-size: 17px&quot;&gt;shading&lt;/font&gt;" style="rounded=1;whiteSpace=wrap;html=1;fillColor=#f8cecc;strokeColor=#b85450;" vertex="1" parent="1">
          <mxGeometry x="1178.5" y="1617" width="95" height="44" as="geometry"/>
        </mxCell>
        <mxCell id="PwQ5iRUulvVSv9gIs1EZ-80" value="&lt;span style=&quot;font-size: 15px&quot;&gt;reconstuction&lt;/span&gt;" style="rounded=1;whiteSpace=wrap;html=1;fillColor=#d5e8d4;strokeColor=#82b366;" vertex="1" parent="1">
          <mxGeometry x="1178.5" y="1422.5" width="95" height="45" as="geometry"/>
        </mxCell>
        <mxCell id="PwQ5iRUulvVSv9gIs1EZ-81" style="edgeStyle=orthogonalEdgeStyle;rounded=0;orthogonalLoop=1;jettySize=auto;html=1;exitX=0;exitY=0.75;exitDx=0;exitDy=0;entryX=1;entryY=0.75;entryDx=0;entryDy=0;strokeColor=#000000;fontColor=#FF3399;" edge="1" parent="1">
          <mxGeometry relative="1" as="geometry">
            <mxPoint x="471" y="1570" as="sourcePoint"/>
            <mxPoint x="685" y="1570" as="targetPoint"/>
            <Array as="points">
              <mxPoint x="471" y="1552.5"/>
              <mxPoint x="685" y="1552.5"/>
            </Array>
          </mxGeometry>
        </mxCell>
        <mxCell id="PwQ5iRUulvVSv9gIs1EZ-83" style="edgeStyle=orthogonalEdgeStyle;rounded=0;orthogonalLoop=1;jettySize=auto;html=1;exitX=0.5;exitY=0;exitDx=0;exitDy=0;entryX=0.5;entryY=0;entryDx=0;entryDy=0;" edge="1" parent="1" source="PwQ5iRUulvVSv9gIs1EZ-85" target="PwQ5iRUulvVSv9gIs1EZ-88">
          <mxGeometry relative="1" as="geometry"/>
        </mxCell>
        <mxCell id="PwQ5iRUulvVSv9gIs1EZ-84" style="edgeStyle=orthogonalEdgeStyle;rounded=0;orthogonalLoop=1;jettySize=auto;html=1;exitX=0;exitY=0.5;exitDx=0;exitDy=0;entryX=1;entryY=0.5;entryDx=0;entryDy=0;strokeColor=#000000;fontColor=#FF3399;" edge="1" parent="1" source="PwQ5iRUulvVSv9gIs1EZ-85" target="PwQ5iRUulvVSv9gIs1EZ-88">
          <mxGeometry relative="1" as="geometry">
            <Array as="points">
              <mxPoint x="625.5" y="1894.1112467447917"/>
              <mxPoint x="879.5" y="1894.1112467447917"/>
            </Array>
          </mxGeometry>
        </mxCell>
        <mxCell id="PwQ5iRUulvVSv9gIs1EZ-85" value="&lt;font style=&quot;font-size: 19px&quot;&gt;reflectance&lt;br&gt;encoder&lt;/font&gt;" style="shape=trapezoid;perimeter=trapezoidPerimeter;whiteSpace=wrap;html=1;rotation=0;direction=south;fillColor=#fff2cc;strokeColor=#d6b656;" vertex="1" parent="1">
          <mxGeometry x="575" y="1899.1112467447917" width="100" height="155" as="geometry"/>
        </mxCell>
        <mxCell id="PwQ5iRUulvVSv9gIs1EZ-86" style="edgeStyle=orthogonalEdgeStyle;rounded=0;orthogonalLoop=1;jettySize=auto;html=1;exitX=0.5;exitY=1;exitDx=0;exitDy=0;entryX=0;entryY=0.5;entryDx=0;entryDy=0;" edge="1" parent="1" source="PwQ5iRUulvVSv9gIs1EZ-88" target="PwQ5iRUulvVSv9gIs1EZ-105">
          <mxGeometry relative="1" as="geometry"/>
        </mxCell>
        <mxCell id="PwQ5iRUulvVSv9gIs1EZ-87" style="edgeStyle=orthogonalEdgeStyle;rounded=0;orthogonalLoop=1;jettySize=auto;html=1;exitX=0;exitY=0.75;exitDx=0;exitDy=0;entryX=1;entryY=0.75;entryDx=0;entryDy=0;strokeColor=#000000;fontColor=#FF3399;" edge="1" parent="1" source="PwQ5iRUulvVSv9gIs1EZ-85" target="PwQ5iRUulvVSv9gIs1EZ-88">
          <mxGeometry relative="1" as="geometry">
            <Array as="points">
              <mxPoint x="603.5" y="1884.1112467447917"/>
              <mxPoint x="901.5" y="1884.1112467447917"/>
            </Array>
          </mxGeometry>
        </mxCell>
        <mxCell id="PwQ5iRUulvVSv9gIs1EZ-88" value="&lt;font style=&quot;font-size: 17px&quot;&gt;reflectance&lt;br&gt;decoder&lt;/font&gt;" style="shape=trapezoid;perimeter=trapezoidPerimeter;whiteSpace=wrap;html=1;rotation=0;direction=north;fillColor=#fff2cc;strokeColor=#d6b656;" vertex="1" parent="1">
          <mxGeometry x="829" y="1899.1112467447917" width="100" height="155" as="geometry"/>
        </mxCell>
        <mxCell id="PwQ5iRUulvVSv9gIs1EZ-123" style="edgeStyle=orthogonalEdgeStyle;rounded=0;orthogonalLoop=1;jettySize=auto;html=1;exitX=0.5;exitY=0;exitDx=0;exitDy=0;entryX=0.5;entryY=0;entryDx=0;entryDy=0;" edge="1" parent="1" source="PwQ5iRUulvVSv9gIs1EZ-92" target="PwQ5iRUulvVSv9gIs1EZ-100">
          <mxGeometry relative="1" as="geometry"/>
        </mxCell>
        <mxCell id="PwQ5iRUulvVSv9gIs1EZ-92" value="&lt;font style=&quot;font-size: 17px&quot;&gt;shading&lt;br&gt;encoder&lt;/font&gt;" style="shape=trapezoid;perimeter=trapezoidPerimeter;whiteSpace=wrap;html=1;rotation=0;direction=south;fillColor=#f8cecc;strokeColor=#b85450;" vertex="1" parent="1">
          <mxGeometry x="576.5" y="2093.111246744792" width="100" height="155" as="geometry"/>
        </mxCell>
        <mxCell id="PwQ5iRUulvVSv9gIs1EZ-98" style="edgeStyle=orthogonalEdgeStyle;rounded=0;orthogonalLoop=1;jettySize=auto;html=1;exitX=0.5;exitY=1;exitDx=0;exitDy=0;entryX=0;entryY=0.5;entryDx=0;entryDy=0;" edge="1" parent="1" source="PwQ5iRUulvVSv9gIs1EZ-100" target="PwQ5iRUulvVSv9gIs1EZ-109">
          <mxGeometry relative="1" as="geometry"/>
        </mxCell>
        <mxCell id="PwQ5iRUulvVSv9gIs1EZ-100" value="&lt;font style=&quot;font-size: 17px&quot;&gt;shading&lt;br&gt;decoder&lt;/font&gt;" style="shape=trapezoid;perimeter=trapezoidPerimeter;whiteSpace=wrap;html=1;rotation=0;direction=north;fillColor=#f8cecc;strokeColor=#b85450;" vertex="1" parent="1">
          <mxGeometry x="829" y="2093.111246744792" width="100" height="155" as="geometry"/>
        </mxCell>
        <mxCell id="PwQ5iRUulvVSv9gIs1EZ-102" style="edgeStyle=orthogonalEdgeStyle;rounded=0;orthogonalLoop=1;jettySize=auto;html=1;exitX=1;exitY=0.5;exitDx=0;exitDy=0;entryX=0.5;entryY=1;entryDx=0;entryDy=0;" edge="1" parent="1" source="PwQ5iRUulvVSv9gIs1EZ-103" target="PwQ5iRUulvVSv9gIs1EZ-85">
          <mxGeometry relative="1" as="geometry">
            <Array as="points">
              <mxPoint x="538" y="2076"/>
              <mxPoint x="538" y="1977"/>
            </Array>
          </mxGeometry>
        </mxCell>
        <mxCell id="PwQ5iRUulvVSv9gIs1EZ-122" style="edgeStyle=orthogonalEdgeStyle;rounded=0;orthogonalLoop=1;jettySize=auto;html=1;exitX=1;exitY=0.5;exitDx=0;exitDy=0;" edge="1" parent="1" source="PwQ5iRUulvVSv9gIs1EZ-103" target="PwQ5iRUulvVSv9gIs1EZ-92">
          <mxGeometry relative="1" as="geometry"/>
        </mxCell>
        <mxCell id="PwQ5iRUulvVSv9gIs1EZ-103" value="&lt;font style=&quot;font-size: 20px&quot;&gt;input&lt;/font&gt;" style="rounded=1;whiteSpace=wrap;html=1;fillColor=#d5e8d4;strokeColor=#82b366;" vertex="1" parent="1">
          <mxGeometry x="410" y="2054.111246744792" width="90" height="43" as="geometry"/>
        </mxCell>
        <mxCell id="PwQ5iRUulvVSv9gIs1EZ-104" style="edgeStyle=orthogonalEdgeStyle;rounded=0;orthogonalLoop=1;jettySize=auto;html=1;exitX=1;exitY=0.5;exitDx=0;exitDy=0;strokeColor=#000000;fontColor=#FF3399;entryX=0;entryY=0.5;entryDx=0;entryDy=0;" edge="1" parent="1" source="PwQ5iRUulvVSv9gIs1EZ-105" target="PwQ5iRUulvVSv9gIs1EZ-118">
          <mxGeometry relative="1" as="geometry">
            <mxPoint x="1081.5" y="1976.6350562686011" as="targetPoint"/>
            <Array as="points">
              <mxPoint x="1114" y="1976"/>
              <mxPoint x="1114" y="2071"/>
            </Array>
          </mxGeometry>
        </mxCell>
        <mxCell id="PwQ5iRUulvVSv9gIs1EZ-105" value="&lt;font style=&quot;font-size: 17px&quot;&gt;reflectance&lt;/font&gt;" style="rounded=1;whiteSpace=wrap;html=1;fillColor=#fff2cc;strokeColor=#d6b656;" vertex="1" parent="1">
          <mxGeometry x="994.5" y="1954.6112467447917" width="95" height="44" as="geometry"/>
        </mxCell>
        <mxCell id="PwQ5iRUulvVSv9gIs1EZ-124" style="edgeStyle=orthogonalEdgeStyle;rounded=0;orthogonalLoop=1;jettySize=auto;html=1;exitX=0.5;exitY=0;exitDx=0;exitDy=0;entryX=0;entryY=0.5;entryDx=0;entryDy=0;" edge="1" parent="1" source="PwQ5iRUulvVSv9gIs1EZ-109" target="PwQ5iRUulvVSv9gIs1EZ-118">
          <mxGeometry relative="1" as="geometry">
            <Array as="points">
              <mxPoint x="1114" y="2149"/>
              <mxPoint x="1114" y="2070"/>
            </Array>
          </mxGeometry>
        </mxCell>
        <mxCell id="PwQ5iRUulvVSv9gIs1EZ-109" value="&lt;font style=&quot;font-size: 17px&quot;&gt;shading&lt;/font&gt;" style="rounded=1;whiteSpace=wrap;html=1;fillColor=#f8cecc;strokeColor=#b85450;" vertex="1" parent="1">
          <mxGeometry x="994.5" y="2148.611246744792" width="95" height="44" as="geometry"/>
        </mxCell>
        <mxCell id="PwQ5iRUulvVSv9gIs1EZ-118" value="&lt;span style=&quot;font-size: 15px&quot;&gt;reconstuction&lt;/span&gt;" style="rounded=1;whiteSpace=wrap;html=1;fillColor=#d5e8d4;strokeColor=#82b366;" vertex="1" parent="1">
          <mxGeometry x="1134" y="2048.111246744792" width="95" height="45" as="geometry"/>
        </mxCell>
        <mxCell id="PwQ5iRUulvVSv9gIs1EZ-120" style="edgeStyle=orthogonalEdgeStyle;rounded=0;orthogonalLoop=1;jettySize=auto;html=1;exitX=0;exitY=0.5;exitDx=0;exitDy=0;entryX=1;entryY=0.5;entryDx=0;entryDy=0;strokeColor=#000000;fontColor=#FF3399;" edge="1" parent="1">
          <mxGeometry relative="1" as="geometry">
            <Array as="points">
              <mxPoint x="643" y="937.5"/>
              <mxPoint x="897" y="937.5"/>
            </Array>
            <mxPoint x="642.5" y="958" as="sourcePoint"/>
            <mxPoint x="896.5" y="958" as="targetPoint"/>
          </mxGeometry>
        </mxCell>
        <mxCell id="PwQ5iRUulvVSv9gIs1EZ-121" style="edgeStyle=orthogonalEdgeStyle;rounded=0;orthogonalLoop=1;jettySize=auto;html=1;exitX=0;exitY=0.75;exitDx=0;exitDy=0;entryX=1;entryY=0.75;entryDx=0;entryDy=0;strokeColor=#000000;fontColor=#FF3399;" edge="1" parent="1">
          <mxGeometry relative="1" as="geometry">
            <Array as="points">
              <mxPoint x="621" y="927.5"/>
              <mxPoint x="919" y="927.5"/>
            </Array>
            <mxPoint x="620.5" y="951" as="sourcePoint"/>
            <mxPoint x="918.5" y="951" as="targetPoint"/>
          </mxGeometry>
        </mxCell>
        <mxCell id="PwQ5iRUulvVSv9gIs1EZ-125" style="edgeStyle=orthogonalEdgeStyle;rounded=0;orthogonalLoop=1;jettySize=auto;html=1;exitX=0;exitY=0.5;exitDx=0;exitDy=0;entryX=1;entryY=0.5;entryDx=0;entryDy=0;strokeColor=#000000;fontColor=#FF3399;" edge="1" parent="1">
          <mxGeometry relative="1" as="geometry">
            <Array as="points">
              <mxPoint x="627" y="2086.611246744792"/>
              <mxPoint x="881" y="2086.611246744792"/>
            </Array>
            <mxPoint x="625.8333333333335" y="2107.5" as="sourcePoint"/>
            <mxPoint x="880.8333333333335" y="2107.5" as="targetPoint"/>
          </mxGeometry>
        </mxCell>
        <mxCell id="PwQ5iRUulvVSv9gIs1EZ-126" style="edgeStyle=orthogonalEdgeStyle;rounded=0;orthogonalLoop=1;jettySize=auto;html=1;exitX=0;exitY=0.75;exitDx=0;exitDy=0;entryX=1;entryY=0.75;entryDx=0;entryDy=0;strokeColor=#000000;fontColor=#FF3399;" edge="1" parent="1">
          <mxGeometry relative="1" as="geometry">
            <Array as="points">
              <mxPoint x="605" y="2076.611246744792"/>
              <mxPoint x="903" y="2076.611246744792"/>
            </Array>
            <mxPoint x="604.1666666666667" y="2100.8333333333335" as="sourcePoint"/>
            <mxPoint x="902.5" y="2100.8333333333335" as="targetPoint"/>
          </mxGeometry>
        </mxCell>
        <mxCell id="PwQ5iRUulvVSv9gIs1EZ-129" value="&lt;font style=&quot;font-size: 40px&quot; color=&quot;#ff33ff&quot;&gt;&lt;b&gt;RIN&lt;/b&gt;&lt;/font&gt;" style="text;html=1;resizable=0;points=[];autosize=1;align=left;verticalAlign=top;spacingTop=-4;" vertex="1" parent="1">
          <mxGeometry x="740.5" y="60" width="80" height="30" as="geometry"/>
        </mxCell>
        <mxCell id="PwQ5iRUulvVSv9gIs1EZ-130" value="&lt;font style=&quot;font-size: 40px&quot; color=&quot;#ff33ff&quot;&gt;&lt;b&gt;RIN_RemoveShape&lt;/b&gt;&lt;/font&gt;" style="text;html=1;resizable=0;points=[];autosize=1;align=left;verticalAlign=top;spacingTop=-4;" vertex="1" parent="1">
          <mxGeometry x="596.5" y="660" width="380" height="30" as="geometry"/>
        </mxCell>
        <mxCell id="PwQ5iRUulvVSv9gIs1EZ-133" value="&lt;font style=&quot;font-size: 40px&quot; color=&quot;#ff33ff&quot;&gt;&lt;b&gt;RIN_RemoveLight&lt;/b&gt;&lt;/font&gt;" style="text;html=1;resizable=0;points=[];autosize=1;align=left;verticalAlign=top;spacingTop=-4;" vertex="1" parent="1">
          <mxGeometry x="612" y="1283.3333740234375" width="360" height="30" as="geometry"/>
        </mxCell>
        <mxCell id="PwQ5iRUulvVSv9gIs1EZ-134" value="&lt;font style=&quot;font-size: 40px&quot; color=&quot;#ff33ff&quot;&gt;&lt;b&gt;RIN_RemoveShapeLight&lt;/b&gt;&lt;/font&gt;" style="text;html=1;resizable=0;points=[];autosize=1;align=left;verticalAlign=top;spacingTop=-4;" vertex="1" parent="1">
          <mxGeometry x="546.5" y="1813.3333740234375" width="480" height="30" as="geometry"/>
        </mxCell>
      </root>
    </mxGraphModel>
  </diagram>
</mxfile>
